<?xml version="1.0" encoding="UTF-8"?>
<svg id="Layer_2" data-name="Layer 2" xmlns="http://www.w3.org/2000/svg" viewBox="0 0 240.01 83.4">
  <defs>
    <style>
      .cls-1 {
        fill: #000;
      }

      .cls-1, .cls-2, .cls-3, .cls-4 {
        stroke-width: 0px;
      }

      .cls-2 {
        fill: #ff176b;
      }

      .cls-3 {
        fill: #ff0049;
      }

      .cls-4 {
        fill: #ff9700;
      }
    </style>
  </defs>
  <g id="Layer_1-2" data-name="Layer 1">
    <g id="Layer_3" data-name="Layer 3">
      <path class="cls-4" d="M190,83.4h-28V15.05h10.82c1.87,0,3.49,1.49,3.92,3.61,4.42,21.58,8.84,43.16,13.26,64.74Z"/>
      <path class="cls-3" d="M29,55.4c-9.67,7-19.33,14-29,21V3.4h29v52Z"/>
    </g>
    <g id="Layer_2-2" data-name="Layer 2">
      <path class="cls-2" d="M231.09,15.05c1.11-5.98-.15-7.24-6.13-6.13,5.98-1.11,7.81-2.94,8.92-8.92-1.11,5.98.15,7.24,6.13,6.13-5.98,1.11-7.81,2.94-8.92,8.92Z"/>
    </g>
  </g>
  <g id="Layer_8" data-name="Layer 8">
    <g>
      <path class="cls-1" d="M.1,45.04V3.04h29.1v42h-9.9V7.24h-9.3v37.8H.1Z"/>
      <path class="cls-1" d="M53.02,45.04h-3.36c-2.88,0-5.25-.1-7.11-.3s-3.33-.62-4.41-1.26c-1.08-.64-1.84-1.53-2.28-2.67-.44-1.14-.66-2.63-.66-4.47s.31-3.44.93-4.56c.62-1.12,1.63-1.96,3.03-2.52,1.4-.56,3.23-.91,5.49-1.05,2.26-.14,5.03-.21,8.31-.21v-5.52c-.08-1.28-.45-2.23-1.11-2.85-.66-.62-1.99-.93-3.99-.93-1.36,0-2.44.14-3.24.42-.8.28-1.42.66-1.86,1.14-.44.48-.76,1.01-.96,1.59-.2.58-.36,1.17-.48,1.77h-5.4c.12-.72.34-1.6.66-2.64.32-1.04.91-2.04,1.77-3,.86-.96,2.08-1.78,3.66-2.46,1.58-.68,3.69-1.02,6.33-1.02s5.02.2,6.78.6c1.76.4,3.14.94,4.14,1.62,1,.68,1.69,1.5,2.07,2.46.38.96.59,2.02.63,3.18v22.62l-8.94.06ZM52.96,32.2c-1.92,0-3.49.05-4.71.15-1.22.1-2.18.29-2.88.57-.7.28-1.17.69-1.41,1.23-.24.54-.36,1.27-.36,2.19,0,1.08.15,1.94.45,2.58.3.64.81,1.11,1.53,1.41.72.3,1.68.49,2.88.57,1.2.08,2.7.12,4.5.12v-8.82Z"/>
      <path class="cls-1" d="M79.78,15.04h9.9l-.06,30h-9v-20.58l-9,20.58h-5.76l13.92-30Z"/>
      <path class="cls-1" d="M95.68,44.98V15.04h9v20.1l9.24-20.1h9.18v30h-9v-20.1l-9.3,20.1-9.12-.06Z"/>
      <path class="cls-1" d="M129.1,15.04h26.4v4.8h-8.7v25.08h-9v-25.08h-8.7v-4.8Z"/>
      <path class="cls-1" d="M161.49,55.4V15.04l10.8-.06c2.76,0,5.07.31,6.93.93s3.34,1.54,4.44,2.76c1.1,1.22,1.89,2.76,2.37,4.62.48,1.86.72,4.05.72,6.57,0,2.92-.24,5.34-.72,7.26s-1.33,3.46-2.55,4.62c-1.22,1.16-2.88,1.98-4.98,2.46-2.1.48-4.77.76-8.01.84v10.36h-9ZM170.49,40.72c1.76.04,3.13-.23,4.11-.81.98-.58,1.71-1.36,2.19-2.34.48-.98.77-2.14.87-3.48.1-1.34.15-2.75.15-4.23s-.05-2.93-.15-4.23c-.1-1.3-.38-2.42-.84-3.36-.46-.94-1.18-1.67-2.16-2.19-.98-.52-2.37-.78-4.17-.78v21.42Z"/>
      <path class="cls-1" d="M212.38,45.04h-3.36c-2.88,0-8.25-.1-10.11-.3s-3.33-.62-4.41-1.26c-1.08-.64-1.84-1.53-2.28-2.67-.44-1.14-.66-2.63-.66-4.47s.31-3.44.93-4.56c.62-1.12,1.63-1.96,3.03-2.52,1.4-.56,3.23-.91,5.49-1.05,2.26-.14,8.03-.21,11.31-.21v-5.52c-.08-1.28-.45-2.23-1.11-2.85-.66-.62-1.99-.93-3.99-.93-1.36,0-5.44.14-6.24.42-.8.28-1.42.66-1.86,1.14-.44.48-.76,1.01-.96,1.59-.2.58-.36,1.17-.48,1.77h-5.4c.12-.72.34-1.6.66-2.64.32-1.04.91-2.04,1.77-3,.86-.96,2.08-1.78,3.66-2.46,1.58-.68,6.69-1.02,9.33-1.02s5.02.2,6.78.6c1.76.4,3.14.94,4.14,1.62,1,.68,1.69,1.5,2.07,2.46.38.96.59,2.02.63,3.18v22.62l-8.94.06ZM212.31,32.2c-1.92,0-3.49.05-4.71.15-1.22.1-5.18.29-5.88.57-.7.28-1.17.69-1.41,1.23-.24.54-.36,1.27-.36,2.19,0,1.08.15,1.94.45,2.58.3.64.81,1.11,1.53,1.41.72.3,4.68.49,5.88.57,1.2.08,2.7.12,4.5.12v-8.82Z"/>
    </g>
  </g>
</svg>